<?xml version="1.0" encoding="UTF-8"?>
<!DOCTYPE svg PUBLIC "-//W3C//DTD SVG 1.1//EN" "http://www.w3.org/Graphics/SVG/1.1/DTD/svg11.dtd">
<svg xmlns="http://www.w3.org/2000/svg" version="1.1" width="32px" height="32px" style="shape-rendering:geometricPrecision; text-rendering:geometricPrecision; image-rendering:optimizeQuality; fill-rule:evenodd; clip-rule:evenodd" xmlns:xlink="http://www.w3.org/1999/xlink">
<g><path style="opacity:0.909" fill="#d75d00" d="M 9.5,-0.5 C 13.5,-0.5 17.5,-0.5 21.5,-0.5C 22.1667,0.166667 22.8333,0.833333 23.5,1.5C 22.791,2.40397 21.791,2.73731 20.5,2.5C 15.9677,2.81822 11.6344,2.48489 7.5,1.5C 8.16667,0.833333 8.83333,0.166667 9.5,-0.5 Z"/></g>
<g><path style="opacity:0.992" fill="#fd7500" d="M 7.5,1.5 C 11.6344,2.48489 15.9677,2.81822 20.5,2.5C 18.1307,3.68999 16.1307,5.35665 14.5,7.5C 10.2576,7.92075 6.25759,7.25409 2.5,5.5C 3.58457,3.41311 5.25124,2.07978 7.5,1.5 Z"/></g>
<g><path style="opacity:0.933" fill="#fe9202" d="M 23.5,1.5 C 25.7488,2.07978 27.4154,3.41311 28.5,5.5C 25.6296,6.63361 22.6296,7.30027 19.5,7.5C 17.8333,7.5 16.1667,7.5 14.5,7.5C 16.1307,5.35665 18.1307,3.68999 20.5,2.5C 21.791,2.73731 22.791,2.40397 23.5,1.5 Z"/></g>
<g><path style="opacity:0.972" fill="#ffeab1" d="M 28.5,5.5 C 29.3382,5.84171 29.6716,6.50838 29.5,7.5C 23.7174,9.74097 17.7174,10.5743 11.5,10C 11.8333,9.66667 12.1667,9.33333 12.5,9C 15.0356,8.81382 17.369,8.31382 19.5,7.5C 22.6296,7.30027 25.6296,6.63361 28.5,5.5 Z"/></g>
<g><path style="opacity:0.991" fill="#ffcd44" d="M 2.5,5.5 C 6.25759,7.25409 10.2576,7.92075 14.5,7.5C 16.1667,7.5 17.8333,7.5 19.5,7.5C 17.369,8.31382 15.0356,8.81382 12.5,9C 12.1667,9.33333 11.8333,9.66667 11.5,10C 17.7174,10.5743 23.7174,9.74097 29.5,7.5C 30.1667,8.16667 30.8333,8.83333 31.5,9.5C 31.5,9.83333 31.5,10.1667 31.5,10.5C 26.6984,12.2191 21.865,13.8858 17,15.5C 14.9011,14.7135 12.7345,14.3801 10.5,14.5C 10.5,13.1667 10.5,11.8333 10.5,10.5C 7.21536,10.0719 4.21536,9.07191 1.5,7.5C 1.32842,6.50838 1.66175,5.84171 2.5,5.5 Z"/></g>
<g><path style="opacity:0.961" fill="#fd7400" d="M -0.5,9.5 C -0.166667,9.5 0.166667,9.5 0.5,9.5C 2.6402,12.3409 5.6402,13.6743 9.5,13.5C 9.5,14.8333 9.5,16.1667 9.5,17.5C 5.90758,17.302 2.57425,16.302 -0.5,14.5C -0.5,12.8333 -0.5,11.1667 -0.5,9.5 Z"/></g>
<g><path style="opacity:0.981" fill="#ff9402" d="M 1.5,7.5 C 4.21536,9.07191 7.21536,10.0719 10.5,10.5C 10.5,11.8333 10.5,13.1667 10.5,14.5C 12.7345,14.3801 14.9011,14.7135 17,15.5C 21.865,13.8858 26.6984,12.2191 31.5,10.5C 31.5,11.8333 31.5,13.1667 31.5,14.5C 24.4712,17.1737 17.1378,18.1737 9.5,17.5C 9.5,16.1667 9.5,14.8333 9.5,13.5C 5.6402,13.6743 2.6402,12.3409 0.5,9.5C 0.32842,8.50838 0.661754,7.84171 1.5,7.5 Z"/></g>
<g><path style="opacity:0.967" fill="#d85d00" d="M -0.5,14.5 C 2.57425,16.302 5.90758,17.302 9.5,17.5C 9.5,18.5 9.5,19.5 9.5,20.5C 5.80534,20.6498 2.47201,19.6498 -0.5,17.5C -0.5,16.5 -0.5,15.5 -0.5,14.5 Z"/></g>
<g><path style="opacity:0.992" fill="#ff7600" d="M 31.5,14.5 C 31.5,15.5 31.5,16.5 31.5,17.5C 28.4258,19.302 25.0924,20.302 21.5,20.5C 17.5,20.5 13.5,20.5 9.5,20.5C 9.5,19.5 9.5,18.5 9.5,17.5C 17.1378,18.1737 24.4712,17.1737 31.5,14.5 Z"/></g>
<g><path style="opacity:0.938" fill="#fe9209" d="M -0.5,17.5 C 2.47201,19.6498 5.80534,20.6498 9.5,20.5C 13.5,20.5 17.5,20.5 21.5,20.5C 16.8298,21.2997 11.9964,21.9664 7,22.5C 4.84911,22.2275 2.84911,21.5608 1,20.5C 0.601226,20.7284 0.434559,21.0618 0.5,21.5C 0.166667,21.5 -0.166667,21.5 -0.5,21.5C -0.5,20.1667 -0.5,18.8333 -0.5,17.5 Z"/></g>
<g><path style="opacity:1" fill="#ffce45" d="M 31.5,17.5 C 31.5,18.8333 31.5,20.1667 31.5,21.5C 31.1667,21.5 30.8333,21.5 30.5,21.5C 30.44,20.9569 30.1067,20.6236 29.5,20.5C 23.2076,22.663 16.8743,23.9963 10.5,24.5C 7.44672,25.4237 4.44672,25.4237 1.5,24.5C 0.890217,23.609 0.556884,22.609 0.5,21.5C 0.434559,21.0618 0.601226,20.7284 1,20.5C 2.84911,21.5608 4.84911,22.2275 7,22.5C 11.9964,21.9664 16.8298,21.2997 21.5,20.5C 25.0924,20.302 28.4258,19.302 31.5,17.5 Z"/></g>
<g><path style="opacity:0.991" fill="#ffebb2" d="M 30.5,21.5 C 30.3404,23.153 29.6737,24.4863 28.5,25.5C 23.2032,26.2745 17.8699,26.6079 12.5,26.5C 11.5,26.1667 10.8333,25.5 10.5,24.5C 16.8743,23.9963 23.2076,22.663 29.5,20.5C 30.1067,20.6236 30.44,20.9569 30.5,21.5 Z"/></g>
<g><path style="opacity:0.884" fill="#fe9c10" d="M 1.5,24.5 C 4.44672,25.4237 7.44672,25.4237 10.5,24.5C 10.8333,25.5 11.5,26.1667 12.5,26.5C 12.5,27.1667 12.5,27.8333 12.5,28.5C 10.2646,28.2053 8.26465,28.5386 6.5,29.5C 4.5,28.1667 2.83333,26.5 1.5,24.5 Z"/></g>
<g><path style="opacity:0.927" fill="#ffd048" d="M 28.5,25.5 C 27.8333,26.8333 26.8333,27.8333 25.5,28.5C 21.1667,28.5 16.8333,28.5 12.5,28.5C 12.5,27.8333 12.5,27.1667 12.5,26.5C 17.8699,26.6079 23.2032,26.2745 28.5,25.5 Z"/></g>
<g><path style="opacity:0.916" fill="#f37406" d="M 6.5,29.5 C 8.26465,28.5386 10.2646,28.2053 12.5,28.5C 16.8333,28.5 21.1667,28.5 25.5,28.5C 24.1667,29.5 22.8333,30.5 21.5,31.5C 17.5,31.5 13.5,31.5 9.5,31.5C 8.70951,30.5987 7.70951,29.9321 6.5,29.5 Z"/></g>
</svg>
